<?xml version="1.0" encoding="utf-8"?>
<!-- Generator: Adobe Illustrator 23.1.0, SVG Export Plug-In . SVG Version: 6.00 Build 0)  -->
<svg version="1.1" id="Layer_2" xmlns="http://www.w3.org/2000/svg" xmlns:xlink="http://www.w3.org/1999/xlink" x="0px" y="0px"
	 width="1000px" height="355.0527344px" viewBox="0 0 1000 355.0527344" enable-background="new 0 0 1000 355.0527344"
	 xml:space="preserve">
<path d="M177.5205078,0C79.4765625,0,0,79.4765625,0,177.5209961s79.4765625,177.5317383,177.5205078,177.5317383
	c98.0444336,0,177.5317383-79.4873047,177.5317383-177.5317383S275.5649414,0,177.5205078,0z M177.4389648,21.8886719
	c86.0629883,0,155.8276367,69.7651367,155.8276367,155.8276367c0,86.0629883-69.7646484,155.8276367-155.8276367,155.8276367
	S21.6113281,263.7792969,21.6113281,177.7163086C21.6113281,91.6538086,91.3759766,21.8886719,177.4389648,21.8886719z"/>
<path d="M89.0473633,116.8398438v120.8642578h49.1796875c22.3525391,0,39.5283203-13.9560547,39.5283203-36.0585938
	c0-19.4941406-15.2172852-26.9301758-15.2172852-26.9301758s11.6777344-7.4580078,11.6777344-24.0429688
	c0-19.2641602-15.2089844-33.8339844-37.6411133-33.8339844L89.0473633,116.8398438z M116.2451172,140.4633789h14.5302734
	c10.3271484,0,14.8334961,5.3085938,14.8334961,11.8642578c0,7.1171875-5.1020508,11.6083984-14.1464844,11.6083984h-15.2172852
	V140.4633789z M116.2451172,188.1533203h14.5302734c10.3271484,0,14.8334961,5.3085938,14.8334961,11.8642578
	c0,7.1171875-5.1020508,11.6083984-14.1464844,11.6083984h-15.2172852V188.1533203z"/>
<polygon points="214.2285156,237.3261719 214.2285156,144.5571289 187.0302734,144.5571289 187.0302734,116.6137695 
	271.6040039,116.6137695 271.6040039,144.5571289 243.2880859,144.5571289 243.2880859,237.3261719 "/>
<path d="M389.8208008,208.3359375v26.0419922c0,0,15.9360352,6.3867188,35.0009766,6.3867188
	c27.5581055,0,45.3769531-12.28125,45.3769531-38.6015625c0-36.1293945-49.4829102-35.3466797-49.4829102-51.9707031
	c0-5.8496094,4.8378906-8.6645508,15.1503906-8.6645508c13.5268555,0,28.0107422,6.1796875,28.0107422,6.1796875v-26.4487305
	c0,0-11.8808594-5.3208008-30.2470703-5.3208008c-22.0717773,0-44.1992188,10.5385742-44.1992188,36.0292969
	c0,38.3676758,49.1962891,34.2202148,49.1962891,53.2114258c0,7.5058594-5.1757813,10.3173828-16.2397461,10.3173828
	c-15.9794922,0-32.5668945-7.1601563-32.5668945-7.1601563H389.8208008z"/>
<path d="M483.8188477,117.3920898v121.0541992h30.1108398v-39.4697266h5.828125
	c32.4306641,0,45.4667969-18.4404297,45.4667969-41.6279297c0-28.3408203-20.4609375-39.956543-41.9365234-39.956543H483.8188477z
	 M513.9296875,141.8066406h5.2900391c8.2490234,0,16.6972656,2.4365234,16.6972656,15.7866211
	c0,12.4355469-6.59375,16.96875-16.6972656,16.96875h-5.2900391V141.8066406z"/>
<path d="M623.6572266,115.9677734c-28.1513672,0-48.2089844,20.3037109-48.2089844,62.4360352
	c0,35.7250977,12.2626953,62.0893555,47.8818359,62.0893555c33.0693359,0,47.8662109-28.6191406,47.8662109-62.652832
	c0-44.7988281-20.5019531-61.8725586-47.5400391-61.8725586H623.6572266z M623.6425781,141.8452148
	c14.4951172,0,16.8525391,17.8012695,16.8525391,36.5302734c0,19.6801758-3.3623047,36.5561523-17.2636719,36.5561523
	c-15.5683594,0-16.9804688-21.7763672-16.9804688-37.0449219c0-17.2890625,2.6279297-36.0419922,17.3916016-36.0419922V141.8452148z
	"/>
<path d="M766.9238281,156.1147461c0-25.4223633-17.4511719-38.7236328-41.8339844-38.7236328h-39.4697266v121.0532227h30.1113281
	v-42.7246094h4.8769531l23.1992188,42.7246094h32.1455078l-29.3339844-49.453125
	C757.8066406,184.0273438,766.9238281,173.8442383,766.9238281,156.1147461z M715.7314453,141.8056641h5.2890625
	c8.25,0,16.6982422,3.2026367,16.6982422,14.8051758c0,10.2265625-6.59375,15.0834961-16.6982422,15.152832h-5.2890625V141.8056641z
	"/>
<polygon points="804.8388672,238.4462891 804.8388672,141.6040039 776.9667969,141.6040039 776.9667969,117.3935547 
	862.8232422,117.3935547 862.8232422,141.6040039 834.9511719,141.6040039 834.9511719,238.4462891 "/>
<path d="M998.3173828,146.5927734c0,6.2822266-1.6826172,11.7792969-5.0488281,16.4912109
	c-3.2529297,4.5991211-7.6279297,8.4692383-13.125,11.6108398c5.9453125,2.5800781,10.7138672,6.2260742,14.3037109,10.9379883
	C998.1484375,190.3447266,1000,196.0097656,1000,202.6289063c0,12.1152344-3.8144531,21.4824219-11.4433594,28.1015625
	c-7.515625,6.5068359-18.0615234,9.7597656-31.6357422,9.7597656c-5.4970703,0-10.7128906-0.5048828-15.6494141-1.5136719
	c-4.8232422-1.0097656-9.0302734-2.1875-12.6201172-3.5341797v-19.6875c4.9365234,1.7949219,9.7597656,3.2529297,14.4716797,4.375
	c4.7119141,1.0097656,9.6474609,1.5136719,14.8085938,1.5136719c5.8330078,0,10.6015625-1.5136719,14.3027344-4.5429688
	c3.8144531-3.0292969,5.7216797-7.796875,5.7216797-14.3037109c0-5.9453125-1.9072266-10.4326172-5.7216797-13.4619141
	c-3.8134766-3.0292969-8.9179688-4.5429688-15.3125-4.5429688h-16.6591797v-18.1738281h16.1542969
	c5.8339844,0,10.6015625-1.5146484,14.3037109-4.543457c3.8144531-3.1411133,5.7207031-7.5161133,5.7207031-13.1254883
	c0-4.7114258-1.5136719-8.2451172-4.5429688-10.6010742s-7.3476563-3.5336914-12.9570313-3.5336914
	c-3.9267578,0-8.1894531,0.5048828-12.7890625,1.5146484c-4.4873047,0.8974609-8.7509766,2.019043-12.7890625,3.3652344v-18.8466797
	c4.2626953-1.4584961,8.8623047-2.6362305,13.7988281-3.5336914c4.9355469-0.8974609,9.984375-1.3461914,15.1445313-1.3461914
	c12.3398438,0,21.4267578,2.8046875,27.2597656,8.4140625c5.8339844,5.609375,8.7509766,13.0131836,8.7509766,22.2119141
	V146.5927734z"/>
</svg>
